<?xml version="1.0" standalone="no"?>
<!DOCTYPE svg PUBLIC "-//W3C//DTD SVG 20010904//EN"
 "http://www.w3.org/TR/2001/REC-SVG-20010904/DTD/svg10.dtd">
<svg version="1.0" xmlns="http://www.w3.org/2000/svg"
 width="560.000000pt" height="560.000000pt" viewBox="0 0 560.000000 560.000000"
 preserveAspectRatio="xMidYMid meet">
<metadata>
Created by potrace 1.11, written by Peter Selinger 2001-2013
</metadata>
<g transform="translate(0.000000,560.000000) scale(0.100000,-0.100000)"
fill="#000000" stroke="none">
<path d="M4375 5592 c-110 -6 -78 -19 62 -25 76 -3 154 -5 173 -4 23 1 37 -3
42 -13 5 -12 7 -12 7 3 1 18 31 25 31 7 0 -5 7 -10 15 -10 8 0 15 5 15 11 0 5
5 7 12 3 28 -18 287 0 315 22 15 12 -29 13 -297 12 -173 -1 -342 -4 -375 -6z"/>
<path d="M5460 5598 c-2 -10 -10 -162 -11 -200 0 -49 27 -112 44 -101 5 3 6
-4 2 -16 -8 -25 16 -29 35 -6 11 13 9 20 -9 39 -11 12 -18 26 -14 29 3 4 1 7
-5 7 -20 0 -13 17 8 23 21 5 27 31 10 42 -8 5 -8 11 0 20 8 9 7 17 -5 28 -10
10 -12 18 -5 22 8 5 8 11 0 20 -7 9 -6 15 3 24 8 6 13 21 11 33 -1 13 -3 26
-3 31 -1 6 -60 11 -61 5z m30 -38 c0 -5 -5 -10 -11 -10 -5 0 -7 5 -4 10 3 6 8
10 11 10 2 0 4 -4 4 -10z"/>
<path d="M5568 5593 c7 -3 16 -2 19 1 4 3 -2 6 -13 5 -11 0 -14 -3 -6 -6z"/>
<path d="M2076 5511 c-4 -5 -24 -12 -45 -16 -55 -9 -127 -64 -156 -117 -23
-44 -55 -172 -55 -225 0 -36 -24 -103 -39 -112 -8 -5 -10 -18 -5 -34 3 -16 2
-27 -4 -27 -16 0 -21 -38 -6 -44 16 -6 19 -36 4 -36 -5 0 -14 -16 -19 -36 -13
-47 -38 -74 -69 -74 -14 0 -22 -3 -19 -6 3 -4 2 -15 -4 -26 -8 -16 -6 -20 19
-29 31 -11 37 -31 19 -67 -9 -19 -16 -22 -41 -17 -23 5 -27 4 -16 -4 11 -8 4
-11 -32 -11 -26 0 -50 5 -53 10 -3 6 -14 10 -23 10 -12 -1 -9 -5 9 -15 15 -8
29 -21 32 -28 3 -8 30 -28 61 -46 31 -17 56 -35 56 -40 0 -5 12 -12 26 -15 32
-8 26 -16 -17 -25 -22 -4 -33 -13 -34 -26 -4 -44 -18 -66 -53 -82 l-37 -17 55
-6 c67 -6 57 -15 -29 -25 -58 -7 -63 -9 -46 -21 18 -13 18 -14 -3 -14 -12 0
-26 -8 -31 -19 -6 -10 -44 -33 -86 -52 -70 -32 -99 -53 -56 -42 10 3 22 0 25
-6 7 -10 -4 -13 -59 -15 -11 -1 -30 -11 -42 -23 -13 -13 -32 -23 -43 -23 -11
0 -20 -4 -20 -10 0 -16 86 -12 100 5 7 8 20 15 30 15 10 0 23 6 29 14 23 28
211 52 211 27 0 -8 -154 -61 -178 -61 -5 0 -15 -7 -22 -15 -11 -13 -8 -15 16
-15 30 0 23 -16 -11 -22 -13 -2 -20 -11 -20 -28 0 -21 -7 -27 -40 -35 -22 -6
-49 -15 -60 -21 -11 -6 -45 -19 -75 -29 -87 -28 -120 -46 -120 -66 0 -23 55
-30 87 -11 12 7 24 9 27 4 3 -5 29 -7 58 -5 73 5 33 -12 -51 -22 -53 -6 -70
-13 -105 -43 -74 -65 -71 -63 -99 -53 -26 10 -27 9 -33 -37 -5 -42 -12 -53
-53 -86 -25 -20 -72 -53 -103 -72 -47 -29 -58 -41 -58 -62 0 -20 -10 -33 -35
-49 -19 -13 -39 -23 -45 -23 -23 0 -89 -51 -110 -85 -26 -42 -21 -54 12 -31
24 17 78 22 78 7 0 -6 -5 -13 -10 -16 -6 -3 -10 -15 -10 -25 0 -10 -11 -31
-24 -47 -13 -15 -26 -44 -30 -63 -3 -19 -13 -48 -21 -64 -8 -15 -15 -36 -15
-46 0 -10 -7 -20 -15 -24 -8 -3 -15 -1 -15 4 0 21 -30 9 -31 -12 -1 -45 -11
-113 -20 -130 -15 -28 -11 -48 9 -42 11 4 13 3 5 -3 -17 -12 -32 -88 -22 -104
19 -30 -23 -193 -70 -269 -15 -25 -31 -65 -35 -89 -4 -26 -19 -60 -37 -82 -17
-21 -30 -49 -31 -61 0 -37 -28 -150 -43 -183 -36 -75 -88 -222 -94 -269 -4
-28 -13 -61 -19 -73 -14 -26 -16 -53 -2 -53 5 0 15 18 21 40 7 22 23 47 36 55
12 9 23 21 23 28 0 8 22 37 49 66 43 46 49 49 54 31 7 -27 25 -25 33 4 3 14
14 32 25 42 18 16 19 16 19 -5 0 -12 -4 -29 -9 -39 -38 -77 -44 -97 -42 -130
2 -20 3 -44 4 -52 0 -8 -3 -37 -7 -64 -7 -46 -6 -49 9 -36 28 23 36 -6 29
-110 -4 -78 -9 -97 -25 -109 -11 -8 -19 -25 -19 -42 0 -15 -4 -30 -9 -34 -6
-3 -9 -13 -9 -23 1 -9 -1 -29 -5 -44 -6 -22 -4 -25 12 -21 16 4 20 -2 26 -35
6 -36 9 -40 33 -39 l27 2 -3 -80 c-2 -44 -7 -98 -12 -120 -5 -22 -5 -44 -1
-48 15 -15 -1 -91 -21 -106 -31 -21 -6 -36 30 -17 32 17 82 75 130 152 10 15
98 74 111 74 6 0 11 -5 11 -10 0 -6 11 -8 26 -4 l27 7 -7 -71 c-6 -64 -5 -70
11 -68 13 1 17 -5 16 -24 -11 -107 -17 -144 -33 -205 -10 -38 -22 -78 -25 -87
-9 -23 17 -24 35 -2 7 8 24 14 37 12 19 -2 30 9 63 62 22 36 45 77 52 92 7 16
20 28 30 28 30 0 32 1 50 17 15 13 19 13 38 0 12 -8 29 -25 37 -37 12 -16 21
-20 43 -15 15 3 31 2 34 -4 4 -6 12 -8 19 -6 18 6 52 -26 64 -60 6 -19 7 -52
1 -90 -5 -33 -13 -96 -18 -140 -5 -44 -12 -90 -15 -102 -10 -43 28 -25 70 32
35 49 43 55 65 49 64 -18 78 -14 116 35 51 63 74 81 107 81 16 0 38 5 50 12
12 6 37 11 55 9 17 -1 32 1 32 6 0 4 16 9 35 10 33 3 35 1 41 -36 4 -23 17
-49 30 -62 13 -12 24 -19 24 -14 0 5 6 1 13 -8 6 -10 28 -25 47 -35 26 -12 36
-25 38 -46 3 -24 7 -27 30 -23 44 8 52 -1 53 -62 1 -31 4 -83 8 -116 5 -52 9
-60 31 -66 l25 -7 -24 -1 c-19 -1 -21 -4 -12 -15 11 -13 17 -10 40 16 22 24
32 29 47 23 10 -5 24 -9 29 -10 20 -1 35 -17 35 -36 0 -12 7 -19 20 -19 11 0
20 4 20 8 0 5 11 14 25 20 14 6 25 18 25 27 0 8 9 24 19 34 10 10 25 32 33 47
8 18 23 30 38 32 32 5 50 20 50 41 0 10 14 24 33 32 17 8 31 19 30 24 -1 6 16
10 36 10 32 1 37 -2 33 -17 -3 -13 1 -18 15 -18 10 0 24 -5 31 -12 9 -9 12 -8
13 7 3 56 9 113 15 135 4 14 6 31 5 38 -1 6 5 12 14 12 8 0 15 7 15 16 0 9 14
36 30 61 17 24 30 49 30 56 0 7 5 4 11 -6 13 -23 35 -22 52 3 8 11 16 17 20
14 3 -3 3 3 0 15 -8 32 13 25 30 -10 13 -28 15 -30 21 -12 4 11 4 28 0 37 -4
10 -1 16 9 16 20 0 38 -24 42 -56 1 -15 10 -31 19 -36 9 -5 16 -16 16 -25 0
-8 13 -41 30 -72 16 -31 33 -73 37 -94 8 -37 29 -49 27 -14 -1 20 1 20 27 6
11 -5 17 -14 14 -20 -4 -5 -3 -14 0 -20 10 -15 45 19 38 37 -3 8 1 22 10 32
14 16 39 91 40 120 0 6 6 12 12 12 7 0 19 8 29 19 13 14 14 24 7 45 -6 14 -7
35 -3 47 5 12 3 50 -4 85 -6 35 -8 61 -3 58 5 -3 9 4 9 15 0 11 7 27 16 35 8
9 12 20 9 26 -3 5 1 10 9 10 19 0 21 16 4 23 -7 2 -9 8 -5 13 4 5 11 4 15 -2
9 -13 74 -46 67 -33 -4 5 3 9 15 9 11 0 23 -6 26 -13 7 -20 74 -21 74 -2 0 8
5 15 10 15 6 0 10 -12 10 -28 0 -16 8 -32 20 -40 11 -7 20 -21 20 -32 0 -10
10 -26 22 -34 12 -9 19 -16 15 -16 -9 0 95 -105 105 -105 3 0 10 -3 14 -7 14
-15 24 -8 24 15 0 13 -5 28 -12 35 -9 9 -9 12 0 12 7 0 12 13 12 29 0 63 83
30 96 -39 6 -27 10 -31 30 -27 13 2 24 0 24 -4 0 -5 10 -9 23 -10 12 0 16 -3
9 -6 -6 -2 -12 -17 -12 -31 0 -20 3 -23 9 -13 14 21 44 5 38 -20 -7 -26 27
-40 77 -32 36 6 45 16 26 28 -18 11 -11 27 10 22 13 -3 20 0 20 9 0 7 9 18 19
24 16 8 24 5 44 -20 14 -16 28 -26 31 -23 12 12 6 46 -11 59 -15 11 -13 12 15
2 27 -10 32 -17 32 -44 0 -23 5 -33 19 -37 14 -3 21 -17 26 -52 4 -25 15 -54
25 -63 9 -9 20 -25 23 -34 4 -10 17 -18 29 -18 20 -1 21 -2 6 -11 -22 -12 -24
-44 -3 -36 11 5 12 1 5 -19 -15 -38 -12 -51 11 -57 17 -5 20 -11 17 -31 -3
-15 1 -31 8 -37 8 -6 14 -18 14 -26 0 -9 6 -13 15 -10 11 5 13 0 8 -26 -3 -18
-11 -35 -16 -38 -5 -4 0 -10 12 -14 11 -3 21 -11 21 -16 0 -6 244 -8 638 -7
l637 3 3 1035 c2 806 -1 1031 -10 1022 -17 -17 -53 -15 -68 3 -8 10 -11 30 -7
56 4 31 1 45 -12 58 -18 18 -18 17 21 58 9 10 18 27 20 38 2 16 -3 20 -27 20
-16 0 -38 -3 -48 -8 -11 -5 -23 -4 -31 2 -8 6 -21 9 -29 5 -12 -4 -21 5 -33
33 -9 21 -21 48 -27 59 -5 12 -8 40 -5 62 2 22 0 38 -5 35 -14 -8 -37 19 -37
44 0 21 4 24 27 21 17 -2 29 -10 33 -23 7 -27 53 -28 58 -1 2 10 0 21 -5 25
-5 3 -28 46 -51 94 -50 102 -52 140 -10 145 28 3 36 16 43 73 2 19 9 35 15 37
5 2 10 17 10 33 0 16 5 29 11 29 5 0 7 5 4 10 -8 14 21 60 38 60 6 0 17 11 24
25 10 23 9 25 -13 25 -26 0 -32 22 -11 40 47 40 61 49 92 54 41 8 42 12 13 43
l-22 23 22 16 22 15 0 473 0 474 -27 5 c-16 3 -30 2 -33 -3 -3 -4 -42 -5 -87
-2 -80 4 -83 5 -83 29 0 14 -4 21 -10 18 -6 -3 -19 -3 -31 0 -16 5 -18 9 -8
21 6 8 10 16 8 18 -2 2 -38 -2 -79 -9 -41 -8 -100 -14 -130 -14 l-55 0 36 17
c38 19 119 92 101 92 -6 0 -41 -11 -78 -25 -36 -14 -87 -25 -112 -25 -33 0
-52 -6 -68 -21 -30 -28 -59 -19 -50 16 6 22 3 25 -23 25 -16 0 -42 -7 -57 -15
-41 -21 -43 -2 -3 48 18 23 24 34 13 25 -12 -10 -25 -18 -31 -18 -6 0 -13 -7
-17 -15 -5 -13 -9 -13 -26 -3 -11 7 -18 19 -15 25 7 21 -6 15 -27 -12 -11 -14
-28 -25 -38 -25 -10 0 -26 -7 -34 -16 -29 -28 -39 -4 -11 26 34 35 21 43 -47
28 -58 -13 -81 -25 -72 -40 3 -5 8 -7 11 -4 8 7 42 -37 36 -46 -2 -5 -10 -8
-18 -8 -19 0 -84 -43 -85 -56 0 -6 -9 -23 -20 -37 -23 -28 -25 -37 -9 -37 6 0
25 -11 43 -25 18 -14 40 -25 48 -25 24 0 41 -25 25 -38 -16 -14 -82 -9 -103 9
-9 7 -25 14 -36 16 -10 2 -33 10 -51 19 -53 27 -98 93 -64 94 6 1 0 8 -15 16
-22 12 -28 22 -28 49 0 24 5 35 15 35 23 0 18 15 -11 30 -14 8 -33 27 -42 42
-10 17 -25 28 -38 28 -12 0 -28 7 -35 16 -11 14 -9 19 14 36 36 26 34 38 -7
38 -42 0 -55 16 -30 35 11 7 16 17 11 21 -4 4 -18 -3 -31 -15 -24 -22 -25 -22
-35 -4 -11 22 -4 62 16 81 7 7 13 19 13 25 0 15 -46 37 -77 37 -29 0 -29 12 2
58 28 41 16 56 -18 24 -26 -24 -77 -40 -77 -23 0 6 4 11 9 11 5 0 11 7 15 15
8 22 -9 18 -42 -10 -17 -14 -39 -25 -50 -25 -11 0 -25 -7 -32 -15 -10 -12 -28
-15 -69 -13 -68 4 -74 17 -37 88 14 27 22 52 17 55 -6 3 -12 1 -16 -5 -12 -19
-26 -10 -20 11 5 16 4 19 -5 14 -10 -6 -12 1 -7 31 l6 39 -22 -39 c-37 -66
-44 -56 -39 58 2 65 0 106 -7 110 -6 4 -13 -5 -17 -21 -3 -15 -7 -32 -8 -38
-2 -5 -9 7 -16 28 -15 39 -45 51 -53 20 -3 -10 -3 -2 -2 18 3 39 -17 97 -30
89 -5 -3 -19 30 -31 72 -26 89 -65 166 -97 189 -27 20 -84 14 -97 -11 -5 -9
-14 -48 -20 -86 -5 -38 -16 -91 -24 -119 -8 -27 -22 -74 -30 -104 -9 -29 -16
-62 -16 -72 0 -35 -23 -70 -44 -68 -48 3 -58 -1 -53 -20 3 -13 -2 -21 -17 -26
l-21 -8 22 -4 c12 -2 27 -10 33 -18 9 -11 5 -16 -22 -23 -32 -8 -33 -9 -10
-21 25 -13 30 -49 7 -57 -8 -4 -15 -12 -15 -20 0 -7 -12 -17 -27 -20 -16 -4
-32 -9 -36 -11 -5 -3 -69 -6 -144 -7 -111 -2 -139 0 -154 13 -12 11 -28 60
-48 144 -18 77 -44 158 -65 200 -23 47 -34 62 -30 42 4 -28 4 -28 -6 -7 -5 13
-19 36 -31 50 l-20 26 7 -52 c6 -45 4 -52 -9 -46 -8 3 -18 15 -22 27 -7 21 -7
21 -12 2 -8 -33 -25 -47 -49 -41 -19 5 -23 2 -26 -21 -2 -16 -7 -27 -13 -27
-15 2 -63 124 -64 162 -1 32 -6 41 -43 82 -9 10 -24 32 -32 49 -9 16 -22 34
-30 38 -7 4 -21 24 -31 43 -39 75 -73 107 -89 81z m481 -423 c-3 -8 -6 -5 -6
6 -1 11 2 17 5 13 3 -3 4 -12 1 -19z m10 -50 c-3 -7 -5 -2 -5 12 0 14 2 19 5
13 2 -7 2 -19 0 -25z m-849 -487 c3 -10 0 -10 -16 -2 -30 16 -38 33 -11 22 13
-4 25 -14 27 -20z m3584 -442 c-18 -12 -36 -19 -39 -15 -4 4 3 9 15 13 12 3
22 9 22 14 0 5 8 9 18 9 11 0 6 -7 -16 -21z m-697 -69 c3 -5 1 -10 -4 -10 -6
0 -11 5 -11 10 0 6 2 10 4 10 3 0 8 -4 11 -10z m35 -31 c0 -6 -4 -7 -10 -4 -5
3 -10 11 -10 16 0 6 5 7 10 4 6 -3 10 -11 10 -16z m2 -208 c13 -5 36 -20 52
-34 l29 -23 -40 1 c-47 3 -79 18 -93 45 -9 17 -8 20 9 20 11 0 30 -4 43 -9z
m-912 -491 c0 -5 6 -10 14 -10 8 0 18 -9 21 -20 5 -14 12 -19 24 -15 12 3 31
-7 56 -30 22 -19 43 -35 48 -35 10 0 152 -145 174 -177 40 -58 60 -141 37
-150 -20 -8 -98 23 -120 49 -11 11 -29 24 -42 29 -26 10 -169 -6 -187 -21 -20
-17 -43 11 -58 70 -11 41 -12 82 -6 165 4 61 8 120 8 133 1 21 31 33 31 12z
m-170 -675 c5 -49 -2 -83 -21 -104 -24 -26 -35 -17 -39 29 -4 43 -1 56 20 80
11 13 20 28 20 34 1 17 18 -16 20 -39z m-1950 -2085 c0 -5 -4 -10 -10 -10 -5
0 -10 5 -10 10 0 6 5 10 10 10 6 0 10 -4 10 -10z m215 -160 c3 -5 1 -10 -4
-10 -6 0 -11 5 -11 10 0 6 2 10 4 10 3 0 8 -4 11 -10z"/>
<path d="M5117 5454 c-4 -4 -7 -38 -7 -76 0 -61 2 -68 20 -68 24 0 35 48 23
104 -8 38 -22 54 -36 40z"/>
<path d="M5548 5142 c-21 -2 -38 -7 -38 -13 0 -13 67 -11 75 2 9 14 6 15 -37
11z"/>
<path d="M4795 4861 c-3 -6 -3 -27 1 -47 l7 -36 -26 17 c-47 30 -50 5 -5 -35
50 -45 63 -49 72 -17 9 34 7 77 -3 77 -5 0 -11 10 -13 22 -3 24 -23 35 -33 19z"/>
<path d="M4690 4820 c0 -5 7 -10 16 -10 8 0 12 5 9 10 -3 6 -10 10 -16 10 -5
0 -9 -4 -9 -10z"/>
<path d="M4828 4680 c5 -36 7 -35 16 3 4 19 3 27 -7 27 -9 0 -12 -9 -9 -30z"/>
<path d="M4830 4609 c0 -17 4 -28 10 -24 6 3 10 17 10 31 0 13 -4 24 -10 24
-5 0 -10 -14 -10 -31z"/>
<path d="M4830 4530 c0 -5 4 -10 9 -10 6 0 13 5 16 10 3 6 -1 10 -9 10 -9 0
-16 -4 -16 -10z"/>
<path d="M4850 4495 c-10 -12 -10 -15 4 -15 9 0 16 7 16 15 0 8 -2 15 -4 15
-2 0 -9 -7 -16 -15z"/>
<path d="M4873 4466 c-22 -10 -31 -26 -15 -26 12 0 48 28 42 32 -3 2 -15 -1
-27 -6z"/>
<path d="M4917 4409 c-9 -5 -22 -7 -29 -3 -7 4 -8 3 -4 -4 4 -7 2 -12 -3 -12
-6 0 -11 -4 -11 -8 0 -12 42 -8 68 6 12 7 20 17 17 23 -8 11 -15 11 -38 -2z"/>
<path d="M5000 4359 c0 -5 5 -7 10 -4 6 3 10 8 10 11 0 2 -4 4 -10 4 -5 0 -10
-5 -10 -11z"/>
<path d="M5388 4238 c9 -9 15 -9 24 0 9 9 7 12 -12 12 -19 0 -21 -3 -12 -12z"/>
<path d="M1200 3980 c-9 -6 -10 -10 -3 -10 6 0 15 5 18 10 8 12 4 12 -15 0z"/>
<path d="M1248 3983 c7 -3 16 -2 19 1 4 3 -2 6 -13 5 -11 0 -14 -3 -6 -6z"/>
<path d="M890 3686 c0 -2 7 -6 15 -10 8 -3 15 -1 15 4 0 6 -7 10 -15 10 -8 0
-15 -2 -15 -4z"/>
<path d="M835 3655 c-16 -7 -43 -25 -60 -40 l-30 -26 35 7 c50 9 110 42 110
59 0 18 -16 18 -55 0z"/>
<path d="M524 3219 c-19 -22 -19 -22 4 -10 12 6 22 16 22 21 0 15 -5 12 -26
-11z"/>
<path d="M501 3054 c0 -11 3 -14 6 -6 3 7 2 16 -1 19 -3 4 -6 -2 -5 -13z"/>
<path d="M5418 2455 c2 -14 11 -25 18 -25 20 0 17 28 -5 39 -16 9 -17 7 -13
-14z"/>
<path d="M5422 2335 c0 -16 2 -22 5 -12 2 9 2 23 0 30 -3 6 -5 -1 -5 -18z"/>
<path d="M101 1591 c-9 -16 -10 -26 -2 -34 13 -13 25 12 19 40 -3 16 -5 15
-17 -6z"/>
<path d="M2726 525 c-3 -8 -1 -15 4 -15 6 0 10 7 10 15 0 8 -2 15 -4 15 -2 0
-6 -7 -10 -15z"/>
<path d="M2716 491 c-4 -7 -5 -15 -2 -18 9 -9 19 4 14 18 -4 11 -6 11 -12 0z"/>
</g>
</svg>
